<svg version="1.0" xmlns="http://www.w3.org/2000/svg"
 width="256.000000pt" height="256.000000pt" viewBox="0 0 256.000000 256.000000"
 preserveAspectRatio="xMidYMid meet">

<g transform="translate(0.000000,256.000000) scale(0.100000,-0.100000)"
fill="#000000" stroke="none">
<path d="M765 2301 c-128 -6 -171 -12 -216 -30 -147 -57 -232 -153 -277 -314
-15 -56 -17 -125 -17 -672 0 -478 3 -623 14 -670 38 -170 144 -287 306 -338
69 -22 78 -22 705 -22 697 0 685 -1 803 63 57 30 137 112 166 170 55 109 56
116 56 787 0 667 0 672 -53 785 -50 107 -175 202 -302 229 -66 15 -941 23
-1185 12z m595 -591 c0 -121 3 -220 7 -220 4 0 78 70 163 155 l155 155 55 -55
55 -55 -158 -158 c-86 -86 -157 -161 -157 -165 0 -4 101 -7 225 -7 l225 0 0
-75 0 -75 -225 0 c-124 0 -225 -3 -225 -8 0 -4 70 -77 155 -161 85 -85 155
-157 155 -161 0 -3 -23 -28 -50 -55 l-50 -50 -158 158 c-86 86 -161 157 -165
157 -4 0 -7 -101 -7 -224 l0 -224 -36 -7 c-20 -3 -54 -3 -75 0 l-39 7 0 224
c0 123 -3 224 -7 224 -4 0 -79 -71 -165 -157 l-158 -158 -55 55 -55 55 155
155 c85 85 155 159 155 163 0 4 -98 7 -219 7 l-219 0 -7 36 c-3 20 -3 54 0 75
l7 39 224 0 c123 0 224 3 224 7 0 4 -71 79 -157 165 l-158 158 50 50 c27 27
52 50 55 50 4 0 76 -70 161 -155 84 -85 157 -155 161 -155 5 0 8 101 8 225 l0
225 75 0 75 0 0 -220z"/>
</g>
</svg>
